<?xml version="1.0" encoding="UTF-8" standalone="no"?>
<!-- Created with Inkscape (http://www.inkscape.org/) -->

<svg
   width="680"
   height="160"
   viewBox="0 0 179.91666 42.333333"
   version="1.1"
   id="svg1"
   xmlns="http://www.w3.org/2000/svg"
   xmlns:svg="http://www.w3.org/2000/svg">
  <defs
     id="defs1" />
  <g
     id="layer1">
    <g
       id="g29"
       transform="matrix(0.12512504,0,0,0.12512504,-26.929527,-34.478414)">
      <g
         id="g1"
         transform="matrix(0.47739404,0,0,0.47739404,139.74047,191.92589)">
        <ellipse
           style="fill:#ffffff;fill-opacity:1;stroke-width:2.00376"
           id="path6"
           cx="450.20865"
           cy="449.12085"
           rx="8.1588564"
           ry="7.7294431" />
        <ellipse
           style="fill:#ffffff;fill-opacity:1;stroke-width:2.00376"
           id="path6-2"
           cx="599.15833"
           cy="523.75049"
           rx="8.1588564"
           ry="7.7294431" />
        <ellipse
           style="fill:#ffffff;fill-opacity:1;stroke-width:1.68142"
           id="path6-2-3"
           cx="611.13928"
           cy="585.75336"
           rx="6.8463492"
           ry="6.4860153" />
        <ellipse
           style="fill:#ffffff;fill-opacity:1;stroke-width:2.11447"
           id="path6-2-3-0"
           cx="531.70856"
           cy="559.9176"
           rx="8.6096163"
           ry="8.1564789" />
        <ellipse
           style="fill:#ffffff;fill-opacity:1;stroke-width:1.83717"
           id="path6-7"
           cx="529.16705"
           cy="398.1597"
           rx="7.4805346"
           ry="7.0868225" />
        <ellipse
           style="fill:#ffffff;fill-opacity:1;stroke-width:1.83717"
           id="path6-7-1"
           cx="869.69098"
           cy="684.64185"
           rx="7.4805346"
           ry="7.0868225" />
        <path
           id="path2"
           style="fill:#ffffff;fill-opacity:1;stroke-width:1.41934"
           d="m 1050.8613,311.79688 c -102.2706,-1.6008 -200.63642,20.99885 -295.45505,54.96679 0.25875,2.94952 0.51765,5.89939 0.79297,8.84571 82.61227,-24.75702 167.44761,-41.0656 255.45508,-38.07422 30.0246,3.44862 72.8938,12.05064 79.0059,47.45312 -0.06,43.41494 -39.8401,71.65016 -69.5645,97.31641 -82.78479,62.66094 -180.15958,101.99124 -265.08984,125.8164 -0.65124,7.68483 -2.0927,13.96643 -4.61524,20.92774 -3.09096,-6.49133 -4.47559,-11.67792 -5.32421,-18.10352 -89.81261,24.20568 -164.04201,30.83404 -189.01368,28.82031 -27.94946,-3.21996 -66.03993,-5.87613 -78.33593,-35.84374 -8.92011,-35.84476 23.39234,-63.92455 48.06054,-84.39844 61.32882,-51.62424 135.6106,-84.87373 211.77539,-108.57032 0.98141,-4.83197 1.87925,-9.70275 2.65625,-14.50781 0.20867,-1.29155 0.36832,-2.58516 0.56836,-3.87695 -53.8903,17.15805 -106.79078,37.35637 -157.19336,63.15625 -64.37315,36.14759 -134.67466,73.46443 -172.08007,140.15039 -13.99482,23.49603 -6.24971,56.78727 19.41015,68.52734 43.72479,22.80069 95.50669,19.98666 143.31641,17.07227 94.7001,-9.13477 185.30535,-41.26572 273.81836,-74.42969 100.01348,-42.13555 199.55337,-91.7401 279.90037,-166.01953 23.8628,-23.21625 53.0869,-59.16904 33.3828,-93.2832 -24.7027,-34.11992 -73.3631,-35.54547 -111.4707,-35.94531 z m -97.15427,39.63085 c -30.71438,-0.43992 -70.04872,3.71902 -119.83984,14.5 -25.56508,6.78708 -51.07165,14.01673 -76.41407,21.79102 0.33728,3.14545 0.63426,6.2977 1.01954,9.43555 0.30803,2.48568 0.65307,4.9926 1.00976,7.5 1.33391,-0.3841 2.65976,-0.82438 3.99414,-1.20313 38.5145,-13.64824 79.95624,-20.91594 120.47071,-27.8164 43.84027,-5.50133 91.46578,-8.87665 132.58793,10.07226 35.1365,20.15305 4.3553,62.8212 -18.88872,79.34375 -42.97701,35.06005 -94.92309,56.69705 -145.6875,77.31836 9.54523,0.78039 126.85558,-38.54256 184.81832,-102.4707 26.3841,-26.67464 26.6239,-86.89953 -83.07027,-88.47071 z m -208.8125,19.09766 c -43.68849,16.07708 -86.62461,34.47732 -128.82617,53.98438 42.03112,-16.18174 84.54075,-31.68392 127.63281,-45.06641 0.40746,-2.96976 0.80786,-5.94502 1.19336,-8.91797 z" />
        <path
           id="path3"
           style="fill:#ffffff;stroke-width:1.41934"
           d="m 564.37305,431.56445 c -9.09388,0.5024 -11.40357,9.37053 -10.67969,11.50391 -54.20354,33.61509 -108.34913,67.41123 -139.2793,96.69531 -284.75049,269.59616 223.36471,260.3869 528.80078,88.94922 -2.37998,-2.30886 -4.30426,-5.08858 -5.55859,-8.15625 -4.99244,2.61475 -12.08709,6.49669 -12.58594,6.68359 -8.44322,4.06831 -15.38381,7.28236 -26.48047,11.67188 -2.00712,0.79441 -4.01734,1.58679 -6.02539,2.37891 -441.90987,173.45943 -694.22012,53.5473 -397.4375,-151.26172 1.10267,-0.7582 2.17391,-1.49455 3.24414,-2.23047 6.85964,-4.74374 13.76131,-9.40406 20.78125,-13.90821 l 3.44141,-2.19335 c 26.47563,-16.91451 28.95986,-17.70897 36.71094,-19.94532 1.90013,1.01975 4.07321,1.49741 6.25976,1.37696 6.28929,-0.34641 11.12224,-5.45506 10.79297,-11.41016 -0.32859,-5.95514 -5.69515,-10.50195 -11.98437,-10.1543 z" />
        <ellipse
           style="fill:#ffffff;fill-opacity:1;stroke-width:1.69826"
           id="path6-7-7"
           cx="941.95514"
           cy="472.65985"
           rx="6.9149199"
           ry="6.5509768" />
        <ellipse
           style="fill:#ffffff;fill-opacity:1;stroke-width:1.69826"
           id="path6-7-7-7"
           cx="911.58685"
           cy="409.25925"
           rx="6.9149199"
           ry="6.5509768" />
        <ellipse
           style="fill:#ffffff;fill-opacity:1;stroke-width:1.11126"
           id="path6-7-7-7-6"
           cx="873.71088"
           cy="442.36169"
           rx="4.5247774"
           ry="4.2866311" />
        <ellipse
           style="fill:#ffffff;fill-opacity:1;stroke-width:1.11126"
           id="path6-7-7-7-6-8"
           cx="579.9693"
           cy="565.66504"
           rx="4.5247774"
           ry="4.2866311" />
        <ellipse
           style="fill:#ffffff;fill-opacity:1;stroke-width:1.11126"
           id="path6-7-7-7-6-6"
           cx="960.43097"
           cy="445.7991"
           rx="4.5247774"
           ry="4.2866311" />
        <ellipse
           style="fill:#ffffff;fill-opacity:1;stroke-width:1.83717"
           id="path6-7-9"
           cx="1085.7261"
           cy="583.60419"
           rx="7.4805346"
           ry="7.0868225" />
        <path
           style="fill:#ffffff;stroke-width:0.938625"
           d="m 671.25117,531.38479 c 5.04456,21.21238 5.0991,21.30514 23.72133,26.1306 -18.6488,5.02698 -18.66595,4.98224 -23.66901,24.78812 -5.42631,-19.97238 -5.3036,-20.0602 -25.96637,-24.67547 20.8185,-5.01251 20.78177,-5.08254 25.91405,-26.24325 z"
           id="path46" />
        <path
           style="fill:#ffffff;stroke-width:0.938625"
           d="m 803.81036,518.85404 c 5.04455,21.21238 5.0991,21.30513 23.72133,26.13059 -18.6488,5.02699 -18.66596,4.98224 -23.66901,24.78812 -5.42631,-19.97237 -5.3036,-20.0602 -25.96637,-24.67546 20.8185,-5.01252 20.78177,-5.08255 25.91405,-26.24325 z"
           id="path15-9-0" />
        <path
           style="fill:#ffffff;fill-opacity:1"
           id="path7"
           d="m 129.68754,331.46113 c 0.055,0.26385 -5.86447,2.8165 -6.01217,3.04194 -0.14771,0.22544 -0.12415,6.67176 -0.388,6.72673 -0.26385,0.055 -2.81649,-5.86446 -3.04193,-6.01217 -0.22544,-0.1477 -6.67177,-0.12414 -6.72674,-0.38799 -0.055,-0.26385 5.86447,-2.81649 6.01217,-3.04193 0.1477,-0.22544 0.12414,-6.67177 0.388,-6.72674 0.26385,-0.055 2.81649,5.86447 3.04193,6.01217 0.22544,0.1477 6.67177,0.12414 6.72674,0.38799 z"
           transform="matrix(2.0037634,0,0,2.0037634,694.64276,-237.47578)" />
        <path
           style="fill:#ffffff;fill-opacity:1"
           id="path7-8"
           d="m 129.68754,331.46113 c 0.098,0.47044 -5.95605,2.50421 -6.2194,2.90617 -0.26335,0.40195 0.28967,6.7645 -0.18077,6.8625 -0.47044,0.098 -2.50421,-5.95604 -2.90616,-6.21939 -0.40196,-0.26335 -6.7645,0.28967 -6.86251,-0.18077 -0.098,-0.47044 5.95605,-2.50421 6.2194,-2.90617 0.26335,-0.40195 -0.28968,-6.76449 0.18077,-6.8625 0.47044,-0.098 2.50421,5.95604 2.90616,6.21939 0.40196,0.26335 6.7645,-0.28967 6.86251,0.18077 z"
           transform="matrix(2.2387898,0.258946,-0.258946,2.2387898,753.604,-89.215358)" />
        <path
           style="fill:#ffffff;fill-opacity:1"
           id="path7-8-6"
           d="m 129.68754,331.46113 c 0.0796,0.38209 -5.38383,2.98701 -5.59772,3.31347 -0.21389,0.32647 -0.42036,6.3756 -0.80245,6.4552 -0.38209,0.0796 -2.987,-5.38383 -3.31347,-5.59772 -0.32646,-0.21389 -6.3756,-0.42035 -6.4552,-0.80244 -0.0796,-0.38209 5.38383,-2.98701 5.59772,-3.31347 0.21389,-0.32647 0.42036,-6.3756 0.80245,-6.4552 0.38208,-0.0796 2.987,5.38383 3.31346,5.59772 0.32647,0.21389 6.3756,0.42035 6.45521,0.80244 z"
           transform="matrix(2.6937531,0.36233829,-0.36233829,2.6937531,814.34382,-295.28606)" />
        <path
           style="fill:#ffffff;stroke-width:0.938622"
           d="m 816.84395,431.41769 c 3.60957,15.17828 3.6486,15.24464 16.97353,18.69745 -13.34394,3.597 -13.35621,3.56498 -16.9361,17.73685 -3.88273,-14.291 -3.79493,-14.35384 -18.57994,-17.65624 14.89644,-3.58665 14.87017,-3.63676 18.54251,-18.77806 z"
           id="path47" />
        <path
           style="fill:#ffffff;fill-opacity:1;stroke-width:0.938626"
           d="m 750.58226,357.6385 c 9.32918,111.01667 15.38286,120.56656 131.03963,133.339 -117.14271,9.12581 -121.2846,13.77439 -130.51314,127.53812 C 736.21074,504.8439 728.39899,500.1246 614.27359,493.56718 729.77581,480.81539 736.91833,468.28053 750.58226,357.6385 Z"
           id="path48" />
        <path
           style="fill:#ffffff;stroke-width:0.938624"
           d="m 611.22284,315.31278 c 7.80652,32.82643 7.89093,32.96999 36.70908,40.43745 -28.85927,7.77932 -28.88582,7.71008 -36.62812,38.35994 -8.39728,-30.90753 -8.20739,-31.04342 -40.1833,-38.18562 32.21691,-7.75692 32.16007,-7.86529 40.10234,-40.61177 z"
           id="path49" />
        <path
           style="fill:#ffffff;stroke-width:0.938622"
           d="m 661.60938,308.05229 c 4.66177,19.60276 4.71218,19.68849 21.92133,24.14778 -17.23371,4.64553 -17.24956,4.60418 -21.87298,22.90717 -5.01456,-18.45686 -4.90116,-18.53801 -23.99602,-22.80307 19.23878,-4.63215 19.20483,-4.69687 23.94767,-24.25188 z"
           id="path50" />
        <path
           id="ellipse51"
           style="opacity:1;fill:#ffffff;fill-opacity:1;stroke-width:2.00375"
           d="m 1147.166,471.83789 c -0.8266,-0.047 -1.6562,-0.0378 -2.4824,0.0273 -9.5778,0.75011 -16.7663,8.71336 -16.0566,17.78711 0.1196,1.40149 0.428,2.78119 0.9179,4.10547 -0.3961,11.06186 -50.3863,46.85294 -156.54099,104.41016 -3.40543,-2.71679 -7.71396,-4.20738 -12.16602,-4.20899 -10.4375,7e-5 -18.89866,8.01614 -18.89844,17.9043 -2.2e-4,9.88816 8.46094,17.90423 18.89844,17.9043 10.4375,-7e-5 18.89866,-8.01614 18.89844,-17.9043 -10e-4,-0.93075 -0.0788,-1.86 -0.23242,-2.7793 67.17769,-38.55842 152.67339,-106.22777 158.68949,-106.01367 2.801,1.31829 5.9325,1.8906 9.0625,1.65625 9.5786,-0.7501 16.7675,-8.71459 16.0566,-17.78906 -0.6392,-8.1707 -7.5187,-14.60415 -16.1465,-15.09961 z" />
        <path
           id="path54"
           style="fill:#ffffff;fill-opacity:1;stroke-width:2.00375"
           d="m 993.28592,553.81441 c 0.1217,-0.5826 0.283,-1.15678 0.4825,-1.71821 2.3092,-6.50878 9.17978,-10.01207 15.34618,-7.82496 0.9506,0.34485 1.8508,0.81659 2.6787,1.40396 22.9989,-2.71552 97.0868,-60.76141 156.8664,-123.70568 -1.2501,-2.87137 -1.4803,-6.14067 -0.65,-9.23171 1.9492,-7.24571 9.094,-11.62253 15.9583,-9.77583 6.8644,1.84635 10.8491,9.21706 8.9,16.46279 -1.9491,7.24563 -9.0939,11.62254 -15.9583,9.77592 -0.6459,-0.17462 -1.2765,-0.40223 -1.8859,-0.68048 -41.0115,44.10759 -153.1251,122.10834 -158.3809,124.89775 0.3922,2.19059 0.2046,4.47141 -0.5425,6.6005 -2.3095,6.5094 -9.1809,10.0127 -15.3476,7.8245 -5.55268,-1.96949 -8.73418,-7.94658 -7.46698,-14.02856 z" />
      </g>
      <g
         id="g2"
         transform="matrix(1.0222223,0,0,1.0222223,167.53641,-9.8826074)">
        <path
           style="font-weight:bold;font-size:133.333px;font-family:Nulshock;-inkscape-font-specification:'Nulshock Bold';text-align:center;letter-spacing:14.4748px;white-space:pre;fill:#ffffff;stroke-width:1.07806"
           d="m 1350.8791,397.30988 v 94.98331 h 21.8149 v -94.98331 z"
           id="path28" />
        <path
           style="font-weight:bold;font-size:133.333px;font-family:Nulshock;-inkscape-font-specification:'Nulshock Bold';text-align:center;letter-spacing:14.4748px;white-space:pre;fill:#ffffff;stroke-width:1.07806"
           d="m 1218.9904,397.30988 v 22.17183 h 41.8866 v 72.81148 h 21.815 v -72.81148 h 41.7455 v -22.17183 z"
           id="path27" />
        <path
           style="font-weight:bold;font-size:133.333px;font-family:Nulshock;-inkscape-font-specification:'Nulshock Bold';text-align:center;letter-spacing:14.4748px;white-space:pre;fill:#ffffff;stroke-width:1.07806"
           d="m 1192.5487,468.24185 h -47.999 c -9.026,0 -15.0904,-2.93004 -19.1804,-7.61809 -3.6669,-4.10207 -5.9234,-9.66914 -5.9234,-15.67572 0,-6.59259 2.6796,-12.74567 7.0517,-16.99423 4.0899,-3.95555 9.4492,-6.44608 18.0521,-6.44608 h 47.999 v -24.19785 h -47.999 c -15.3725,0 -24.8697,2.95505 -33.3316,11.01267 -9.4492,9.08311 -15.3726,22.12179 -15.3726,36.47898 0,13.03869 4.6541,24.75885 12.2699,33.40246 8.744,9.96214 19.3821,13.3972 36.4343,14.0892 h 47.999 z"
           id="path26" />
        <path
           id="path24"
           style="font-weight:bold;font-size:133.333px;font-family:Nulshock;-inkscape-font-specification:'Nulshock Bold';text-align:center;letter-spacing:14.4748px;white-space:pre;fill:#ffffff;stroke-width:1.07806"
           d="m 997.176,457.1077 14.5263,-35.45348 c 0.9873,-2.34403 2.5386,-3.07653 4.231,-3.07653 1.8334,0 3.5258,0.879 4.372,3.07653 l 14.6673,35.45348 z m 44.1659,-45.70862 c -5.3593,-12.30616 -12.2926,-14.2607 -25.5496,-14.2607 -13.6802,0 -20.33154,1.95454 -25.6908,14.2607 -11.5839,27.03623 -23.57367,54.29747 -35.68119,80.89411 h 27.52413 c 2.5783,-4.49378 4.11373,-10.28953 5.92336,-15.38271 h 56.413 c 1.3648,5.33086 4.2356,10.74824 6.2054,15.38271 h 26.8189 c -12.7353,-26.32098 -24.1495,-53.93604 -35.9632,-80.89411 z" />
        <path
           style="font-weight:bold;font-size:133.333px;font-family:Nulshock;-inkscape-font-specification:'Nulshock Bold';text-align:center;letter-spacing:14.4748px;white-space:pre;fill:#ffffff;stroke-width:1.07806"
           d="m 929.87992,492.29319 v -21.2928 h -62.29129 c -6.62851,0 -10.60329,-4.22712 -10.38836,-11.40216 v -62.31436 h -21.81503 v 64.80491 c 0,21.53579 5.69837,29.51971 29.10068,30.20441 z"
           id="path23" />
        <path
           id="path20"
           style="font-weight:bold;font-size:133.333px;font-family:Nulshock;-inkscape-font-specification:'Nulshock Bold';text-align:center;letter-spacing:14.4748px;white-space:pre;fill:#ffffff;stroke-width:1.07806"
           d="m 730.71566,457.1077 14.52632,-35.45348 c 0.98722,-2.34403 2.53859,-3.07653 4.23097,-3.07653 1.83342,0 3.52581,0.879 4.37201,3.07653 l 14.66736,35.45348 z m 44.16593,-45.70862 c -5.35922,-12.30616 -12.29264,-14.2607 -25.54967,-14.2607 -13.68013,0 -20.33148,1.95454 -25.69072,14.2607 -11.90821,27.19597 -23.45438,54.03537 -35.68116,80.89411 h 27.52413 c 2.57828,-4.49379 4.11372,-10.28952 5.92336,-15.38271 h 56.41292 c 1.36495,5.33086 4.2354,10.74831 6.20542,15.38271 h 26.81897 C 798.1096,465.97216 786.69538,438.35715 774.88159,411.39908 Z" />
        <g
           id="g28">
          <path
             style="font-weight:bold;font-size:133.333px;font-family:Nulshock;-inkscape-font-specification:'Nulshock Bold';text-align:center;letter-spacing:14.4748px;white-space:pre;fill:#ffffff;stroke-width:1.07806"
             d="m 661.49628,492.29319 c 4.08994,0 3.96726,-0.0288 4.13796,-4.27356 v -47.90615 h -23.45939 v 28.54287 c 0,1.46502 -0.56412,2.05103 -1.83342,2.05103 h -24.39859 c -9.02606,0 -17.01688,-5.39557 -21.10681,-10.08362 -3.66684,-4.10207 -5.92336,-9.66914 -5.92336,-15.67572 0,-6.59259 2.67962,-12.74567 7.05162,-16.99423 4.08994,-3.95555 11.37559,-8.4721 19.97855,-8.4721 h 49.57556 v -22.17183 h -49.57556 c -15.37251,0 -26.79613,4.98107 -35.25806,13.03868 -9.44917,9.08312 -13.4461,20.09578 -13.4461,34.45297 0,13.03869 4.65407,24.75885 12.26981,33.40246 8.744,9.96214 19.36945,14.0892 36.43435,14.0892 z"
             id="text4" />
          <path
             id="rect5"
             style="fill:#ffffff;stroke-width:0.98661"
             d="m 619.73787,440.11191 h 44.2241 v 18.01657 h -44.2241 z" />
        </g>
      </g>
    </g>
  </g>
</svg>
